HIERARCHY
ROOT ui
{
	 OFFSET 0 0 0
	 CHANNELS 3 XPosition YPosition Z Position
	 EndSite
	 {
	 OFFSET 0 -1 0
	 }
}
ROOT li
{
	 OFFSET 0 0 0
	 CHANNELS 3 XPosition YPosition Z Position
	 EndSite
	 {
	 OFFSET 0 -1 0
	 }
}
ROOT ul
{
	 OFFSET 0 0 0
	 CHANNELS 3 XPosition YPosition Z Position
	 EndSite
	 {
	 OFFSET 0 -1 0
	 }
}
ROOT ll
{
	 OFFSET 0 0 0
	 CHANNELS 3 XPosition YPosition Z Position
	 EndSite
	 {
	 OFFSET 0 -1 0
	 }
}
ROOT tt
{
	 OFFSET 0 0 0
	 CHANNELS 3 XPosition YPosition Z Position
	 EndSite
	 {
	 OFFSET 0 -1 0
	 }
}
ROOT tb
{
	 OFFSET 0 0 0
	 CHANNELS 3 XPosition YPosition Z Position
	 EndSite
	 {
	 OFFSET 0 -1 0
	 }
}
ROOT td
{
	 OFFSET 0 0 0
	 CHANNELS 3 XPosition YPosition Z Position
	 EndSite
	 {
	 OFFSET 0 -1 0
	 }
}
ROOT v
{
	 OFFSET 0 0 0
	 CHANNELS 3 XPosition YPosition Z Position
	 EndSite
	 {
	 OFFSET 0 -1 0
	 }
}
ROOT bn
{
	 OFFSET 0 0 0
	 CHANNELS 3 XPosition YPosition Z Position
	 EndSite
	 {
	 OFFSET 0 -1 0
	 }
}
MOTION
Frames: 21
Frame Time: 0.002
0.0012643009424209595	9.933059811592102E-4	0		0.524336181640625	-2.334729248046875	0		-1.0731934814453126	0.05747745895385742	0		-0.6580816040039063	-2.46110205078125	0		1.366347412109375	-0.6536304321289063	0		3.214482421875	-0.08934613037109375	0		4.7774404296875	-0.00804219913482666	0		5.61025390625	0.16970391845703126	0		-0.2383651123046875	5.932892578125	0		
0.0051933698654174805	0.004763469219207763	0		0.5790426635742187	-2.3385390625	0		-1.0051679077148437	0.06962571716308594	0		-0.6233710327148437	-2.463623779296875	0		1.3661932373046874	-0.6539014282226563	0		3.210535400390625	-0.0736893539428711	0		4.78647607421875	0.005378335952758789	0		5.60886962890625	0.19823733520507814	0		-0.255197021484375	5.92490380859375	0		
0.005080827236175537	0.004590795040130615	0		0.5477713623046875	-2.34041064453125	0		-1.084304443359375	0.06736685943603515	0		-0.6375967407226563	-2.460608154296875	0		1.3760194091796876	-0.6562627563476563	0		3.200343017578125	-0.08094366455078125	0		4.778234375	-0.006990766048431397	0		5.6000546875	0.15954054260253905	0		-0.2549584350585937	5.92474658203125	0		
0.004966410160064697	0.004435154914855957	0		0.5635558471679688	-2.33777099609375	0		-1.0144628295898437	0.06251270675659179	0		-0.683728515625	-2.449228271484375	0		1.3598033447265625	-0.6623218383789062	0		3.200223876953125	-0.08128018951416016	0		4.7681201171875	-0.007307975769042969	0		5.602880859375	0.17249761962890625	0		-0.23479322814941406	5.919388671875	0		
-0.02518435478210449	0.0016260219812393188	0		0.5452459106445312	-2.343740966796875	0		-1.0895750732421876	0.0632493553161621	0		-0.6281907348632813	-2.468938232421875	0		1.3626912841796874	-0.6585643920898437	0		3.205022705078125	-0.08864263916015624	0		4.77206494140625	-0.001744423031806946	0		5.60699072265625	0.15433853149414062	0		-0.25453982543945314	5.92448291015625	0		
0.00471854305267334	0.0041812009811401365	0		0.5589656372070313	-2.347038818359375	0		-1.0846566162109375	0.06713235473632813	0		-0.6953298950195312	-2.458289306640625	0		1.3655733642578125	-0.6547831420898438	0		3.210043212890625	-0.07497691345214844	0		4.775001953125	0.0038646559715270995	0		5.60980029296875	0.1656891632080078	0		-0.20519667053222657	5.93984033203125	0		
0.004580953121185303	0.004083751201629638	0		0.54880615234375	-2.339052490234375	0		-1.0098067626953124	0.06526013946533203	0		-0.6325320434570313	-2.454048095703125	0		1.36540478515625	-0.6549446411132812	0		3.203880126953125	-0.07715892791748047	0		4.7748642578125	0.003542819023132324	0		5.60258837890625	0.170452880859375	0		-0.20505506896972656	5.9397529296875	0		
0.013333061218261718	-0.005093701839447021	0		0.5734993896484375	-2.344430908203125	0		-1.084936279296875	0.06705516052246094	0		-0.6598739013671875	-2.4617998046875	0		1.365228271484375	-0.6550824584960937	0		3.222782958984375	-0.07258731079101563	0		4.7667392578125	0.005344678878784179	0		5.606677734375	0.1524888916015625	0		-0.23899728393554687	5.9350595703125	0		
-0.025757835388183593	0.0012777819633483887	0		0.5442469482421874	-2.344192626953125	0		-1.0151419677734375	0.062261844635009764	0		-0.6371009521484375	-2.4590888671875	0		1.3619979248046874	-0.6591643676757812	0		3.1945888671875	-0.07546675109863281	0		4.76657958984375	0.005092065811157226	0		5.599443359375	0.1556521759033203	0		-0.2681600646972656	5.91333203125	0		
5.66289983689785E-5	-5.432099848985672E-5	0		0.5439869995117188	-2.344256591796875	0		-1.090307861328125	0.06309112167358398	0		-0.7072717895507813	-2.450329833984375	0		1.364844970703125	-0.655292236328125	0		3.1944130859375	-0.07562910461425781	0		4.764384765625	0.0028936688899993896	0		5.606431640625	0.15157096862792968	0		-0.25300265502929686	5.923130859375	0		
0.012813817024230957	-0.005226781845092773	0		0.5576867065429687	-2.347458740234375	0		-1.085447509765625	0.06704454040527344	0		-0.6236693725585938	-2.46227099609375	0		1.351614990234375	-0.657220947265625	0		3.207268310546875	-0.0719107666015625	0		4.768265625	0.008659010887145996	0		5.61211181640625	0.1752633056640625	0		-0.22176591491699219	5.94276416015625	0		
0.0037159290313720705	0.003860996961593628	0		0.5495392456054687	-2.33639892578125	0		-1.0816112060546874	0.07002082061767578	0		-0.6548637084960938	-2.454917236328125	0		1.36745068359375	-0.6524539794921875	0		3.196224365234375	-0.05789899444580078	0		4.77806591796875	0.008388525009155273	0		5.6048583984375	0.18033303833007813	0		-0.20481718444824218	5.93956884765625	0		
0.0035032870769500734	0.003863987922668457	0		0.5721714477539063	-2.344668701171875	0		-1.0108713989257812	0.06525654602050782	0		-0.6361558837890625	-2.456109375	0		1.3641866455078124	-0.655454345703125	0		3.197864013671875	-0.07100477600097656	0		4.764966796875	0.018406532287597657	0		5.60179443359375	0.16804704284667968	0		-0.2540443572998047	5.92412890625	0		
-7.698519825935364E-4	-7.321900129318238E-5	0		0.542888916015625	-2.34433837890625	0		-1.091126953125	0.06319854354858398	0		-0.6615088500976563	-2.461794921875	0		1.363942626953125	-0.65546923828125	0		3.201701171875	-0.06510877227783203	0		4.7696484375	0.010254809379577637	0		5.60291064453125	0.13667381286621094	0		-0.2200775146484375	5.92876953125	0		
-0.027003511428833008	0.001250769019126892	0		0.5425946044921875	-2.344318359375	0		-1.091372314453125	0.06325173568725585	0		-0.6727146606445312	-2.453626953125	0		1.3476160888671875	-0.6612853393554687	0		3.202306640625	-0.07815343475341797	0		4.76940185546875	0.010188668251037598	0		5.6056494140625	0.1502947998046875	0		-0.23913453674316407	5.9350185546875	0		
-0.0012819809913635254	5.849999724887311E-7	0		0.546345703125	-2.339330322265625	0		-1.0865919189453126	0.06725624084472656	0		-0.6960540161132812	-2.45631298828125	0		1.35038427734375	-0.6572993774414062	0		3.19034521484375	-0.05103090286254883	0		4.767294921875	0.02417271614074707	0		5.6083671875	0.1622393798828125	0		-0.204257080078125	5.93867041015625	0		
0.0024801740646362303	0.004007974147796631	0		0.5730072021484375	-2.34158984375	0		-1.011889892578125	0.06547608184814453	0		-0.6692923583984375	-2.449556396484375	0		1.344160888671875	-0.651197265625	0		3.20090283203125	-0.06514429473876954	0		4.76701220703125	0.024161596298217774	0		5.6081640625	0.16220298767089844	0		-0.204460205078125	5.9387255859375	0		
-0.0018614180088043213	1.1421599984169006E-4	0		0.5436885986328125	-2.341206787109375	0		-1.0871697998046874	0.06739546966552734	0		-0.6356613159179687	-2.453873291015625	0		1.371776611328125	-0.6584664306640625	0		3.20771826171875	-0.05519590377807617	0		4.771625	0.016117835998535158	0		5.60796728515625	0.16567097473144532	0		-0.23973945617675782	5.93518505859375	0		
-0.002168068885803223	1.804089993238449E-4	0		0.5662842407226563	-2.348404541015625	0		-1.0175256958007812	0.06267744064331054	0		-0.6489283447265625	-2.44865576171875	0		1.3435462646484375	-0.6510936889648438	0		3.189457763671875	-0.05094949722290039	0		4.7664091796875	0.02420549774169922	0		5.6006240234375	0.16764210510253907	0		-0.2551266174316406	5.92442333984375	0		
-0.018570001602172852	-0.007568962097167968	0		0.5410078735351562	-2.344055419921875	0		-1.0877879638671875	0.06754350280761719	0		-0.6284232788085937	-2.463820556640625	0		1.3711497802734376	-0.65834765625	0		3.17906640625	-0.05778168106079101	0		4.7610068359375	0.016309438705444337	0		5.6045986328125	0.15030081176757812	0		-0.23931060791015624	5.9333115234375	0		
0.010149599075317383	-0.004828104972839356	0		0.5546553344726562	-2.3471455078125	0		-1.07721435546875	0.05749142837524414	0		-0.695635009765625	-2.453991455078125	0		1.354927490234375	-0.6501005249023437	0		3.215774169921875	-0.05613845443725586	0		4.76476220703125	0.022322662353515627	0		5.61019482421875	0.1744615783691406	0		-0.207385498046875	5.95301806640625	0		
